<?xml version="1.0" encoding="utf-8"?>
<svg width="100%" height="100%" viewBox="-105.0 -105.0 210.0 210.0" preserveAspectRatio="xMidYMid meet" version="1.1" baseProfile="full" xmlns="http://www.w3.org/2000/svg">
<g style="stroke:#000; stroke-width: 0.4721359549995795; stroke-linejoin: round;">
<path fill="#fff" fill-opacity="0.6" d="m-4.953800363085458e-15,-80.90169943749474 l-18.163563200134025,5.901699437494742 l18.163563200134025,5.901699437494742 l18.163563200134025,-5.901699437494742z"/>
<path fill="#fff" fill-opacity="0.6" d="m29.389262614623654,-59.54915028125262 l-18.16356320013402,5.901699437494742 l-11.225699414489638,-15.450849718747378 l18.16356320013402,-5.901699437494742z"/>
<path fill="#fff" fill-opacity="0.6" d="m-29.38926261462366,-59.54915028125262 l18.16356320013402,5.901699437494742 l11.225699414489638,-15.450849718747378 l-18.16356320013402,-5.901699437494742z"/>
<path fill="#fff" fill-opacity="0.6" d="m-2.3388672653026155e-15,-38.19660112501051 l-11.22569941448964,-15.45084971874737 l11.225699414489638,-15.450849718747378 l11.22569941448964,15.45084971874737z"/>
<path fill="#fff" fill-opacity="0.6" d="m11.225699414489634,-53.64745084375788 l-11.225699414489636,15.45084971874737 l18.163563200134025,-5.901699437494742 l11.225699414489636,-15.45084971874737z"/>
<path fill="#fff" fill-opacity="0.6" d="m-11.225699414489641,-53.64745084375788 l11.22569941448964,15.45084971874737 l-18.163563200134025,-5.901699437494742 l-11.22569941448964,-15.45084971874737z"/>
<path fill="#fff" fill-opacity="0.6" d="m29.38926261462365,-40.450849718747364 l3.552713678800501e-15,-19.09830056250526 l-11.225699414489632,15.45084971874737 l-3.552713678800501e-15,19.09830056250526z"/>
<path fill="#fff" fill-opacity="0.6" d="m-29.389262614623657,-40.450849718747364 l-3.552713678800501e-15,-19.09830056250526 l11.225699414489632,15.45084971874737 l3.552713678800501e-15,19.09830056250526z"/>
<path fill="#fff" fill-opacity="0.6" d="m-1.1694336326513076e-15,-19.09830056250525 l-1.169433632651308e-15,-19.09830056250526 l18.163563200134025,-5.901699437494742 l1.169433632651308e-15,19.09830056250526z"/>
<path fill="#fff" fill-opacity="0.6" d="m-1.1694336326513076e-15,-19.09830056250525 l-1.169433632651308e-15,-19.09830056250526 l-18.163563200134025,-5.901699437494742 l1.169433632651308e-15,19.09830056250526z"/>
</g>
</svg>