<?xml version="1.0" encoding="utf-8"?>
<svg width="100%" height="100%" viewBox="-105.0 -105.0 210.0 210.0" preserveAspectRatio="xMidYMid meet" version="1.1" baseProfile="full" xmlns="http://www.w3.org/2000/svg">
<g style="stroke:#000; stroke-width: 0.4721359549995795; stroke-linejoin: round;">
<path fill="#fff" fill-opacity="0.6" d="m1.4861401089256373e-14,80.90169943749474 l18.163563200134025,-5.901699437494742 l-18.163563200134025,-5.901699437494742 l-18.163563200134025,5.901699437494742z"/>
<path fill="#fff" fill-opacity="0.6" d="m-29.389262614623647,59.54915028125263 l18.16356320013402,-5.901699437494749 l11.22569941448964,15.450849718747378 l-18.16356320013402,5.901699437494749z"/>
<path fill="#fff" fill-opacity="0.6" d="m29.389262614623668,59.549150281252615 l-18.16356320013402,-5.9016994374947345 l-11.225699414489636,15.450849718747378 l18.16356320013402,5.9016994374947345z"/>
<path fill="#fff" fill-opacity="0.6" d="m7.0166017959078465e-15,38.19660112501051 l11.225699414489641,15.45084971874737 l-11.225699414489636,15.450849718747378 l-11.225699414489641,-15.45084971874737z"/>
<path fill="#fff" fill-opacity="0.6" d="m-11.225699414489627,53.64745084375788 l11.225699414489634,-15.45084971874737 l-18.163563200134025,5.901699437494742 l-11.225699414489634,15.45084971874737z"/>
<path fill="#fff" fill-opacity="0.6" d="m11.225699414489648,53.64745084375788 l-11.225699414489641,-15.45084971874737 l18.163563200134025,5.901699437494742 l11.225699414489641,15.45084971874737z"/>
<path fill="#fff" fill-opacity="0.6" d="m-29.389262614623647,40.45084971874737 l0.0,19.09830056250526 l11.225699414489629,-15.450849718747378 l-0.0,-19.09830056250526z"/>
<path fill="#fff" fill-opacity="0.6" d="m29.38926261462366,40.45084971874736 l7.105427357601002e-15,19.09830056250526 l-11.225699414489636,-15.450849718747364 l-7.105427357601002e-15,-19.09830056250526z"/>
<path fill="#fff" fill-opacity="0.6" d="m3.5083008979539225e-15,19.09830056250525 l3.508300897953924e-15,19.09830056250526 l-18.163563200134025,5.901699437494742 l-3.508300897953924e-15,-19.09830056250526z"/>
<path fill="#fff" fill-opacity="0.6" d="m3.5083008979539225e-15,19.09830056250525 l3.508300897953924e-15,19.09830056250526 l18.163563200134025,5.901699437494742 l-3.508300897953924e-15,-19.09830056250526z"/>
</g>
</svg>