<?xml version="1.0" encoding="utf-8"?>
<svg width="100%" height="100%" viewBox="-210.0 -210.0 420.0 420.0" preserveAspectRatio="xMidYMid meet" version="1.1" baseProfile="full" xmlns="http://www.w3.org/2000/svg">
<g style="stroke:#000; stroke-width: 0.944271909999159; stroke-linejoin: round;">
<path fill="#fff" fill-opacity="0" d="m1.135310019130245e-14,61.80339887498948 l36.32712640026804,-11.803398874989504 l-36.32712640026805,-11.803398874989462 l-36.32712640026804,11.803398874989504z"/>
<path fill="#fff" fill-opacity="0" d="m-58.778525229247315,19.09830056250526 l36.32712640026804,-11.80339887498949 l22.451398828979283,30.90169943749475 l-36.32712640026804,11.80339887498949z"/>
<path fill="#fff" fill-opacity="0" d="m58.778525229247315,19.098300562505237 l-36.32712640026804,-11.803398874989476 l-22.45139882897927,30.901699437494756 l36.32712640026804,11.803398874989476z"/>
<path fill="#fff" fill-opacity="0" d="m-4.336498395394606e-15,-23.606797749978988 l22.45139882897928,30.90169943749475 l-22.45139882897927,30.901699437494756 l-22.45139882897928,-30.90169943749475z"/>
<path fill="#fff" fill-opacity="0" d="m-22.451398828979276,7.294901687515769 l22.451398828979272,-30.901699437494756 l-36.32712640026804,11.803398874989501 l-22.451398828979272,30.901699437494756z"/>
<path fill="#fff" fill-opacity="0" d="m22.451398828979276,7.29490168751576 l-22.45139882897928,-30.90169943749475 l36.32712640026806,11.803398874989487 l22.45139882897928,30.90169943749475z"/>
<path fill="#fff" fill-opacity="0" d="m-58.77852522924731,-19.098300562505255 l-7.105427357601002e-15,38.19660112501052 l22.451398828979265,-30.901699437494745 l7.105427357601002e-15,-38.19660112501052z"/>
<path fill="#fff" fill-opacity="0" d="m58.77852522924731,-19.098300562505276 l7.105427357601002e-15,38.19660112501052 l-22.451398828979265,-30.901699437494738 l-7.105427357601002e-15,-38.19660112501052z"/>
<path fill="#fff" fill-opacity="0" d="m-1.1353100191302453e-14,-61.803398874989504 l7.0166017959078465e-15,38.19660112501052 l-36.32712640026804,11.803398874989501 l-7.0166017959078465e-15,-38.19660112501052z"/>
<path fill="#fff" fill-opacity="0" d="m-1.1353100191302453e-14,-61.803398874989504 l7.0166017959078465e-15,38.19660112501052 l36.32712640026806,11.803398874989487 l-7.0166017959078465e-15,-38.19660112501052z"/>
</g>
</svg>